<?xml version='1.0' encoding='UTF-8'?>
<svg x="0px" y="0px" viewBox="0 0 32 32" version="1.1" xmlns="http://www.w3.org/2000/svg" xmlns:xlink="http://www.w3.org/1999/xlink" enable-background="new 0 0 32 32" xml:space="preserve" id="Layer_1">
  <g id="Country">
    <path d="M32,8H16V6h16V8z M32,10H16v2h16V10z M32,14H16v2h16V14z M32,18H0v2h32V18z M32,22H0v2h32V22z" fill="#D11C1C" class="Red" />
    <path d="M0,6v10h14V6H0z M4,14H2v-2h2V14z M4,10H2V8h2V10z M8,14H6v-2h2V14z M8,10H6V8h2V10z M12,14h-2v-2h2V14z    M12,10h-2V8h2V10z" fill="#1177D7" class="Blue" />
  </g>
</svg>