<?xml version='1.0' encoding='UTF-8'?>
<svg x="0px" y="0px" viewBox="0 0 32 32" version="1.1" xmlns="http://www.w3.org/2000/svg" xmlns:xlink="http://www.w3.org/1999/xlink" enable-background="new 0 0 32 32" xml:space="preserve" id="Layer_1">
  <g>
    <g opacity="0.75" class="st1">
      <path d="M22,18H10v-2h12V18z M22,8H10v2h12V8z M22,12H10v2h12V12z M22,20H10v2h12V20z" fill="#727272" opacity="0.75" class="Black" />
    </g>
    <path d="M27,0H5C4.5,0,4,0.5,4,1v28c0,0.5,0.5,1,1,1h22c0.5,0,1-0.5,1-1V1C28,0.5,27.5,0,27,0z M26,28H6V2h20V28z" fill="#727272" class="Black" />
  </g>
</svg>